<?xml version="1.0" encoding="UTF-8" standalone="no"?>
<!DOCTYPE svg PUBLIC "-//W3C//DTD SVG 1.1//EN" "http://www.w3.org/Graphics/SVG/1.1/DTD/svg11.dtd">
<svg width="100%" height="100%" viewBox="0 0 1397 247" version="1.1" xmlns="http://www.w3.org/2000/svg" xmlns:xlink="http://www.w3.org/1999/xlink" xml:space="preserve" xmlns:serif="http://www.serif.com/" style="fill-rule:evenodd;clip-rule:evenodd;stroke-linejoin:round;stroke-miterlimit:2;">
    <g transform="matrix(1,0,0,1,-19636,-11049)">
        <g transform="matrix(0.918522,0,0,1.12184,24335.2,9517.09)">
            <g transform="matrix(1.0887,0,0,0.891393,-7448.21,584.011)">
                <g transform="matrix(0.476973,0,0,0.476973,2533.58,106.227)">
                    <path d="M1215.13,1940.96L1215.13,1806.45L1515.24,1806.45C1515.24,1806.45 1502.04,1830.43 1488.19,1830.39C1488.18,1830.39 1240.78,1830.38 1240.78,1830.38L1240.78,1858.84L1515.25,1858.85C1515.25,1858.85 1502.15,1884.53 1488.19,1884.5L1240.78,1884.49L1240.78,1915.51L1515.26,1915.51C1515.26,1915.51 1502.05,1940.98 1488.19,1940.96L1215.13,1940.96Z" style="fill:rgb(235,12,60);fill-rule:nonzero;"/>
                    <path d="M884.799,1941.36L884.874,1888.78L763.408,1864.88L642.531,1888.38L642.472,1940.96C642.472,1940.96 613.852,1934.5 613.852,1926.81L613.852,1806.46C613.852,1806.46 642.479,1813.76 642.472,1821.43C642.472,1821.45 642.531,1861.05 642.531,1861.05L763.408,1836.93L884.874,1861.59C884.874,1861.59 884.785,1821.44 884.785,1821.43C884.793,1813.21 912.964,1806.46 912.964,1806.46L912.969,1926.81C912.967,1934.45 884.799,1941.36 884.799,1941.36Z" style="fill:rgb(235,12,60);fill-rule:nonzero;"/>
                    <path d="M22.442,1873.7C22.5,1869.36 24.305,1866.58 28.105,1862.52C33.367,1856.9 41.209,1851.63 56.746,1845.88C72.283,1840.12 90.962,1835.6 112.783,1832.3C134.605,1829 158.783,1827.36 185.318,1827.36C195.094,1827.36 205.219,1827.65 215.694,1828.25C226.168,1828.85 236.555,1829.81 246.855,1831.13C257.155,1832.45 266.931,1834.1 276.183,1836.08C285.435,1838.05 298.535,1843.02 300.288,1843.02C306.843,1843.01 314.809,1822.81 314.809,1822.81C299.447,1817.3 274.437,1813.19 252.616,1810.49C230.794,1807.8 208.362,1806.45 185.318,1806.45C157.736,1806.45 132.336,1808.13 109.117,1811.48C85.899,1814.84 70.235,1819.49 53.476,1825.42C36.717,1831.35 23.711,1838.45 14.459,1846.73C5.207,1855 0.58,1863.99 0.58,1873.7L0.58,1873.71C0.58,1883.42 5.207,1892.41 14.459,1900.68C23.711,1908.95 36.717,1916.05 53.476,1921.99C70.235,1927.92 85.899,1932.57 109.117,1935.92C132.336,1939.28 157.736,1940.96 185.318,1940.96C208.362,1940.96 230.794,1939.61 252.616,1936.91C274.437,1934.21 299.361,1930.11 314.723,1924.59C314.723,1924.59 306.817,1903.19 300.288,1903.18C298.525,1903.18 285.435,1908.13 276.183,1910.11C266.931,1912.09 257.155,1913.74 246.855,1915.06C236.555,1916.38 226.168,1917.33 215.694,1917.93C205.219,1918.53 195.094,1918.83 185.318,1918.83C158.783,1918.83 134.605,1917.18 112.783,1913.89C90.962,1910.59 72.283,1906.07 56.746,1900.31C41.209,1894.56 34.036,1890.27 28.105,1884.7C24.796,1881.6 22.384,1878.04 22.442,1873.7Z" style="fill:rgb(235,12,60);"/>
                    <g transform="matrix(1,0,0,1,1792.01,0)">
                        <path d="M22.442,1873.7C22.5,1869.36 24.305,1866.58 28.105,1862.52C33.367,1856.9 41.209,1851.63 56.746,1845.88C72.283,1840.12 90.962,1835.6 112.783,1832.3C134.605,1829 158.783,1827.36 185.318,1827.36C195.094,1827.36 205.219,1827.65 215.694,1828.25C226.168,1828.85 236.555,1829.81 246.855,1831.13C257.155,1832.45 266.931,1834.1 276.183,1836.08C285.435,1838.05 298.535,1843.02 300.288,1843.02C306.843,1843.01 314.809,1822.81 314.809,1822.81C299.447,1817.3 274.437,1813.19 252.616,1810.49C230.794,1807.8 208.362,1806.45 185.318,1806.45C157.736,1806.45 132.336,1808.13 109.117,1811.48C85.899,1814.84 70.235,1819.49 53.476,1825.42C36.717,1831.35 23.711,1838.45 14.459,1846.73C5.207,1855 0.58,1863.99 0.58,1873.7L0.58,1873.71C0.58,1883.42 5.207,1892.41 14.459,1900.68C23.711,1908.95 36.717,1916.05 53.476,1921.99C70.235,1927.92 85.899,1932.57 109.117,1935.92C132.336,1939.28 157.736,1940.96 185.318,1940.96C208.362,1940.96 230.794,1939.61 252.616,1936.91C274.437,1934.21 299.361,1930.11 314.723,1924.59C314.723,1924.59 306.817,1903.19 300.288,1903.18C298.525,1903.18 285.435,1908.13 276.183,1910.11C266.931,1912.09 257.155,1913.74 246.855,1915.06C236.555,1916.38 226.168,1917.33 215.694,1917.93C205.219,1918.53 195.094,1918.83 185.318,1918.83C158.783,1918.83 134.605,1917.18 112.783,1913.89C90.962,1910.59 72.283,1906.07 56.746,1900.31C41.209,1894.56 34.036,1890.27 28.105,1884.7C24.796,1881.6 22.384,1878.04 22.442,1873.7Z" style="fill:rgb(235,12,60);"/>
                    </g>
                </g>
                <g transform="matrix(0.070219,0,0,0.070219,2105.18,715.906)">
                    <path d="M3571.14,2878.94C3862.64,3184.51 4036.86,3642.81 4036.86,4096.63C4036.86,5037.38 3268.09,5801.14 2321.17,5801.14C1800.69,5801.14 1321.62,5592.56 1006.86,5228.49C1319.63,5556.37 1774.45,5738.82 2264.56,5738.82C3211.48,5738.82 3980.25,4975.06 3980.25,4034.31C3980.25,3610.66 3829.02,3177.22 3571.13,2878.94L3571.14,2878.94Z" style="fill:url(#_Radial1);"/>
                    <path d="M3552.28,2921.97C3760.72,3180.84 3923.12,3528.83 3927.88,3965.31C3931.5,4295.9 3833.85,4594.46 3702.94,4820.04C3611.97,4976.8 3520.38,5100.14 3413.24,5190.69C3291.15,5293.89 3203.43,5338.24 3172.34,5349.11C3186.47,5342.74 3218.55,5321.72 3224.55,5317.23C3386.65,5196.02 3436.71,5090.17 3438.01,5088.08C3571.31,4874.64 3541.71,4634.05 3447.08,4476.08C3420.37,4431.48 3300.98,4287.66 3049.25,4242.98C2750.26,4189.9 2542.98,4325.28 2161.82,4154.35C1879.24,4039.53 1720.92,3779.3 1629.74,3514.48C1491.32,3112.46 1562.5,2417.05 1698.28,2374.41C2197.33,2217.7 2716.58,2280.17 3156.07,2565.22C3105.15,2569.69 3038.29,2589.54 3008.17,2625.47C2928.64,2720.34 2977.43,2891.66 3117.06,3007.82C3256.69,3123.98 3434.62,3141.26 3514.15,3046.39C3539.26,3016.43 3551.57,2963.02 3552.28,2921.97Z" style="fill:url(#_Radial2);"/>
                    <path d="M1720.78,5593.34C1603.99,5556.69 1434,5491.87 1245.01,5359.17C1067.25,5234.35 878.446,5050.68 727.721,4776.09C562.914,4475.85 413.789,3953.03 645.637,3358.79C629.962,3704.6 790.996,4076.2 1267.74,4429.62C783.579,4117.02 806.699,4703.51 1114.15,5120C1220.43,5263.98 1335.94,5399.53 1720.78,5593.34Z" style="fill:url(#_Radial3);"/>
                    <path d="M1315.54,4459.85C1316.35,4459.22 1372.66,4510.45 1463.96,4576.88C1534.31,4628.07 1652.04,4719.11 1750.14,4760.66C1940.98,4841.5 2060.71,4848.92 2175,4889.57C2289.29,4930.21 2449.16,5117.38 2484.93,5154.97C2554.28,5227.85 2650.5,5304.45 2709.65,5332.22C2821.22,5384.61 2960.07,5409.03 3059.24,5382.96C2968.49,5413.6 2807.64,5409.39 2689.45,5379.82C2631.58,5365.34 2518.91,5323.39 2415.37,5263.15C2371.35,5237.53 2299.52,5200.32 2261.55,5191.14C2210.11,5178.7 2151.45,5185.15 2149.97,5187.36C2148.49,5189.57 2214.62,5278.53 2242.53,5329.27C2273.75,5386.01 2301.26,5492.26 2298.08,5483.83C2282.67,5443.01 2261.2,5417.07 2188.95,5356.77C2060.05,5249.19 2076.08,5266.44 1985.36,5210.08C1736.12,5055.24 1755.69,5025.76 1659.9,4868.23C1625.03,4810.87 1587.77,4755.07 1538.49,4699.29C1414.72,4559.17 1314.73,4460.48 1315.54,4459.85Z" style="fill:url(#_Radial4);"/>
                    <path d="M2274.41,5372.08C2266.7,5351.98 2265.82,5350.44 2259.78,5337.18C2287.29,5315.31 2303.1,5304.8 2346.8,5282.95C2318.9,5240.33 2273.78,5215.31 2274.73,5214.19C2275.19,5213.66 2336.89,5246.14 2364.99,5261.11C2404.03,5281.91 2570.02,5377.4 2573.4,5382.4C2576.78,5387.4 2531.51,5357.11 2432.28,5353.92C2394.43,5352.7 2336.22,5355.08 2274.41,5372.08Z" style="fill:url(#_Radial5);"/>
                    <path d="M2215.62,5397.83C2200.28,5400.81 2188.64,5405.26 2167.67,5420.63C2176.86,5400.49 2185.49,5390.59 2195.47,5379.82C2200.58,5383.18 2212.59,5393.74 2215.62,5397.83Z" style="fill:url(#_Radial6);"/>
                </g>
            </g>
        </g>
    </g>
    <defs>
        <radialGradient id="_Radial1" cx="0" cy="0" r="1" gradientUnits="userSpaceOnUse" gradientTransform="matrix(-1186.6,1481.47,-1481.47,-1186.6,2741.36,3490.6)"><stop offset="0" style="stop-color:rgb(235,12,60);stop-opacity:1"/><stop offset="1" style="stop-color:rgb(173,0,0);stop-opacity:1"/></radialGradient>
        <radialGradient id="_Radial2" cx="0" cy="0" r="1" gradientUnits="userSpaceOnUse" gradientTransform="matrix(-1186.6,1481.47,-1481.47,-1186.6,2741.36,3490.6)"><stop offset="0" style="stop-color:rgb(235,12,60);stop-opacity:1"/><stop offset="1" style="stop-color:rgb(173,0,0);stop-opacity:1"/></radialGradient>
        <radialGradient id="_Radial3" cx="0" cy="0" r="1" gradientUnits="userSpaceOnUse" gradientTransform="matrix(-1186.6,1481.47,-1481.47,-1186.6,2741.36,3490.6)"><stop offset="0" style="stop-color:rgb(235,12,60);stop-opacity:1"/><stop offset="1" style="stop-color:rgb(173,0,0);stop-opacity:1"/></radialGradient>
        <radialGradient id="_Radial4" cx="0" cy="0" r="1" gradientUnits="userSpaceOnUse" gradientTransform="matrix(-1186.6,1481.47,-1481.47,-1186.6,2741.36,3490.6)"><stop offset="0" style="stop-color:rgb(235,12,60);stop-opacity:1"/><stop offset="1" style="stop-color:rgb(173,0,0);stop-opacity:1"/></radialGradient>
        <radialGradient id="_Radial5" cx="0" cy="0" r="1" gradientUnits="userSpaceOnUse" gradientTransform="matrix(-1186.6,1481.47,-1481.47,-1186.6,2741.36,3490.6)"><stop offset="0" style="stop-color:rgb(235,12,60);stop-opacity:1"/><stop offset="1" style="stop-color:rgb(173,0,0);stop-opacity:1"/></radialGradient>
        <radialGradient id="_Radial6" cx="0" cy="0" r="1" gradientUnits="userSpaceOnUse" gradientTransform="matrix(-1186.6,1481.47,-1481.47,-1186.6,2741.36,3490.6)"><stop offset="0" style="stop-color:rgb(235,12,60);stop-opacity:1"/><stop offset="1" style="stop-color:rgb(173,0,0);stop-opacity:1"/></radialGradient>
    </defs>
</svg>
