<?xml version="1.0" encoding="UTF-8" standalone="no"?>
<!DOCTYPE svg PUBLIC "-//W3C//DTD SVG 1.1//EN" "http://www.w3.org/Graphics/SVG/1.1/DTD/svg11.dtd">
<svg width="100%" height="100%" viewBox="0 0 2783 479" version="1.1" xmlns="http://www.w3.org/2000/svg" xmlns:xlink="http://www.w3.org/1999/xlink" xml:space="preserve" xmlns:serif="http://www.serif.com/" style="fill-rule:evenodd;clip-rule:evenodd;stroke-linejoin:round;stroke-miterlimit:2;">
    <g transform="matrix(1,0,0,1,-359,-1001)">
        <g transform="matrix(4.16667,0,0,4.16667,0,0)">
            <g transform="matrix(1,0,0,1,302.832,328.455)">
                <path d="M0,15.66C-3.691,15.66 -6.701,12.152 -6.701,7.832C-6.701,3.527 -3.691,0.006 0,0.006C3.717,0.006 6.711,3.527 6.711,7.832C6.711,12.152 3.717,15.66 0,15.66M0,-1.613C-5.328,-1.613 -9.686,2.609 -9.686,7.832C-9.686,13.062 -5.328,17.273 0,17.273C5.367,17.273 9.725,13.062 9.725,7.832C9.725,2.609 5.367,-1.613 0,-1.613" style="fill:rgb(84,149,51);fill-rule:nonzero;"/>
            </g>
            <g transform="matrix(1,0,0,1,544.203,328.455)">
                <path d="M0,15.66C-3.688,15.66 -6.695,12.152 -6.695,7.832C-6.695,3.527 -3.688,0.006 0,0.006C3.701,0.006 6.723,3.527 6.723,7.832C6.723,12.152 3.701,15.66 0,15.66M0,-1.613C-5.346,-1.613 -9.688,2.609 -9.688,7.832C-9.688,13.062 -5.346,17.273 0,17.273C5.359,17.273 9.707,13.062 9.707,7.832C9.707,2.609 5.359,-1.613 0,-1.613" style="fill:rgb(84,149,51);fill-rule:nonzero;"/>
            </g>
            <g transform="matrix(1,0,0,1,674.113,328.455)">
                <path d="M0,15.66C-3.678,15.66 -6.689,12.152 -6.689,7.832C-6.689,3.527 -3.678,0.006 0,0.006C3.709,0.006 6.723,3.527 6.723,7.832C6.723,12.152 3.709,15.66 0,15.66M0,-1.613C-5.332,-1.613 -9.688,2.609 -9.688,7.832C-9.688,13.062 -5.332,17.273 0,17.273C5.359,17.273 9.699,13.062 9.699,7.832C9.699,2.609 5.359,-1.613 0,-1.613" style="fill:rgb(84,149,51);fill-rule:nonzero;"/>
            </g>
            <g transform="matrix(1,0,0,1,707.842,328.384)">
                <path d="M0,15.645C-3.715,15.645 -6.703,12.122 -6.703,7.809C-6.703,3.495 -3.715,-0.009 0,-0.009C3.691,-0.009 6.693,3.495 6.693,7.809C6.693,12.122 3.691,15.645 0,15.645M0,-1.609C-5.359,-1.609 -9.686,2.592 -9.686,7.809C-9.686,13.014 -5.359,17.254 0,17.254C5.338,17.254 9.686,13.014 9.686,7.809C9.686,2.592 5.338,-1.609 0,-1.609" style="fill:rgb(84,149,51);fill-rule:nonzero;"/>
            </g>
            <g transform="matrix(1,0,0,1,327.281,342.393)">
                <path d="M0,-13.299C1.211,-12.899 1.955,-12.961 2.199,-11.69C2.418,-10.426 3.049,-10.82 3.049,-10.82C4.078,-10.77 3.758,-13.881 3.758,-13.881C3.234,-14.328 0.805,-14.793 0.805,-14.793C-12.146,-17.5 -12.502,-5.297 -12.502,-5.297C-12.045,0.697 -7.539,2.201 -7.539,2.201C-2.197,4.201 2.953,2.133 2.953,2.133C4.305,0.752 3.568,0.287 3.568,0.287C1.559,1.678 -2.002,1.381 -2.002,1.381C-11.801,-0.336 -8.07,-9.789 -8.07,-9.789C-6.387,-14.008 -1.213,-13.692 0,-13.299" style="fill:rgb(84,149,51);fill-rule:nonzero;"/>
            </g>
            <g transform="matrix(1,0,0,1,731.553,333.574)">
                <path d="M0,4.566L0,5.601C1.604,5.601 1.992,6.402 1.992,6.402C2.584,10.045 0.287,10.199 0.287,10.199C-0.639,10.248 -1.348,10.199 -1.348,10.199C-11.129,8.482 -7.393,-0.971 -7.393,-0.971C-5.697,-5.19 -0.764,-5.338 1.412,-4.604C2.625,-4.174 3.391,-4.245 3.611,-2.987C3.855,-1.723 4.531,-1.659 4.531,-1.659C5.561,-1.608 5.17,-5.19 5.17,-5.19C4.65,-5.627 2.242,-6.098 2.242,-6.098C-12.514,-8.682 -11.813,3.521 -11.813,3.521C-11.346,9.515 -6.881,11.019 -6.881,11.019L-5.664,11.462C1.541,13.248 5.17,10.496 5.17,10.496L5.352,6.228C6.154,5.291 5.625,4.566 5.625,4.566L0,4.566Z" style="fill:rgb(84,149,51);fill-rule:nonzero;"/>
            </g>
            <g transform="matrix(1,0,0,1,617.156,342.393)">
                <path d="M0,-13.299C1.244,-12.899 1.979,-12.961 2.197,-11.69C2.424,-10.426 3.07,-10.82 3.07,-10.82C4.105,-10.77 3.77,-13.881 3.77,-13.881C3.254,-14.328 0.824,-14.793 0.824,-14.793C-12.133,-17.5 -12.477,-5.297 -12.477,-5.297C-12.023,0.697 -7.527,2.201 -7.527,2.201C-2.168,4.201 2.949,2.133 2.949,2.133C4.348,0.752 3.59,0.287 3.59,0.287C1.559,1.678 -1.982,1.381 -1.982,1.381C-11.781,-0.336 -8.043,-9.789 -8.043,-9.789C-6.357,-14.008 -1.199,-13.692 0,-13.299" style="fill:rgb(84,149,51);fill-rule:nonzero;"/>
            </g>
            <g transform="matrix(1,0,0,1,351.594,345.054)">
                <path d="M0,-17.41C-2.033,-17.058 -6.07,-17.41 -6.07,-17.41L-5.979,-16.353C-4.754,-16.183 -4.559,-14.812 -4.559,-14.812L-4.863,-9.912L-13.316,-10.086L-13.145,-14.707C-13.078,-16.129 -11.695,-16.306 -11.695,-16.306L-11.477,-17.455C-12.318,-17.342 -18.037,-17.455 -18.037,-17.455L-18,-16.408C-16.934,-16.238 -16.533,-15.387 -16.533,-15.387L-16.533,-4.115C-16.643,-1.232 -18.256,-1.166 -18.256,-1.166L-18.256,0.045C-17.586,-0.187 -11.695,-0.06 -11.695,-0.06L-11.695,-1.166L-12.045,-1.336C-13.078,-1.637 -13.443,-2.67 -13.443,-2.67L-13.254,-8.232L-4.793,-8.232L-4.793,-3.584C-4.863,-0.822 -6.242,-0.984 -6.242,-0.984C-6.352,-0.187 -6.406,-0.017 -6.406,-0.017C-4.793,-0.306 0.16,0.045 0.16,0.045L0.16,-1.121C-0.291,-1.281 -0.98,-1.685 -1.395,-2.375C-1.791,-3.053 -1.395,-13.603 -1.223,-14.922C-1.035,-16.238 0.16,-16.306 0.16,-16.306C0.391,-17.455 0,-17.41 0,-17.41" style="fill:rgb(84,149,51);fill-rule:nonzero;"/>
            </g>
            <g transform="matrix(1,0,0,1,641.434,345.054)">
                <path d="M0,-17.41C-2.033,-17.058 -6.063,-17.41 -6.063,-17.41L-6.008,-16.353C-4.736,-16.183 -4.559,-14.812 -4.559,-14.812L-4.863,-9.912L-13.309,-10.086L-13.162,-14.707C-13.084,-16.129 -11.713,-16.306 -11.713,-16.306L-11.477,-17.455C-12.336,-17.342 -18.047,-17.455 -18.047,-17.455L-17.975,-16.408C-16.953,-16.238 -16.563,-15.387 -16.563,-15.387L-16.563,-4.115C-16.641,-1.232 -18.285,-1.166 -18.285,-1.166L-18.285,0.045C-17.555,-0.187 -11.713,-0.06 -11.713,-0.06L-11.713,-1.166L-12.047,-1.336C-13.084,-1.637 -13.432,-2.67 -13.432,-2.67L-13.268,-8.232L-4.799,-8.232L-4.799,-3.584C-4.863,-0.822 -6.227,-0.984 -6.227,-0.984C-6.344,-0.187 -6.404,-0.017 -6.404,-0.017C-4.799,-0.306 0.154,0.045 0.154,0.045L0.154,-1.121C-0.311,-1.281 -0.99,-1.685 -1.41,-2.375C-1.793,-3.053 -1.41,-13.603 -1.223,-14.922C-1.035,-16.238 0.154,-16.306 0.154,-16.306C0.383,-17.455 0,-17.41 0,-17.41" style="fill:rgb(84,149,51);fill-rule:nonzero;"/>
            </g>
            <g transform="matrix(1,0,0,1,360.271,343.624)">
                <path d="M0,-14.654C0.701,-14.754 0.584,-15.045 0.584,-15.045L0.584,-15.732C0.584,-16.197 0.299,-16.025 0.299,-16.025C-2.135,-15.506 -6.084,-15.912 -6.084,-15.912L-6.162,-14.877L-5.693,-14.808C-4.535,-14.654 -4.535,-13.619 -4.535,-13.619L-4.535,-1.396C-4.666,0.385 -6.395,0.446 -6.395,0.446L-6.395,1.543C-5.01,1.073 0.518,1.543 0.518,1.543L0.518,0.149L0.049,0.094C-1.021,-0.207 -1.021,-0.996 -1.021,-0.996L-1.021,-13.277C-1.021,-14.595 0,-14.654 0,-14.654" style="fill:rgb(84,149,51);fill-rule:nonzero;"/>
            </g>
            <g transform="matrix(1,0,0,1,421.139,343.624)">
                <path d="M0,-14.654C0.697,-14.754 0.564,-15.045 0.564,-15.045L0.564,-15.732C0.564,-16.197 0.305,-16.025 0.305,-16.025C-2.143,-15.506 -6.115,-15.912 -6.115,-15.912L-6.154,-14.877L-5.711,-14.808C-4.531,-14.654 -4.531,-13.619 -4.531,-13.619L-4.531,-1.396C-4.648,0.385 -6.381,0.446 -6.381,0.446L-6.381,1.543C-5,1.073 0.529,1.543 0.529,1.543L0.529,0.149L0.064,0.094C-1.041,-0.207 -1.041,-0.996 -1.041,-0.996L-1.041,-13.277C-1.041,-14.595 0,-14.654 0,-14.654" style="fill:rgb(84,149,51);fill-rule:nonzero;"/>
            </g>
            <g transform="matrix(1,0,0,1,494.328,343.624)">
                <path d="M0,-14.654C0.688,-14.754 0.574,-15.045 0.574,-15.045L0.574,-15.732C0.574,-16.197 0.281,-16.025 0.281,-16.025C-2.143,-15.506 -6.115,-15.912 -6.115,-15.912L-6.17,-14.877L-5.697,-14.808C-4.543,-14.654 -4.543,-13.619 -4.543,-13.619L-4.543,-1.396C-4.676,0.385 -6.398,0.446 -6.398,0.446L-6.398,1.543C-5.012,1.073 0.506,1.543 0.506,1.543L0.506,0.149L0.068,0.094C-1.053,-0.207 -1.053,-0.996 -1.053,-0.996L-1.053,-13.277C-1.053,-14.595 0,-14.654 0,-14.654" style="fill:rgb(84,149,51);fill-rule:nonzero;"/>
            </g>
            <g transform="matrix(1,0,0,1,386.648,345.346)">
                <path d="M0,-22.586L0,-21.309C1.736,-21.26 2.133,-19.883 2.133,-19.883L1.846,-6.631C1.777,-5.482 1.275,-2.307 -4.193,-2.256C-9.67,-2.201 -9.844,-6.111 -9.844,-6.111C-9.844,-6.111 -9.492,-18.844 -9.561,-19.815C-9.602,-20.789 -7.598,-21.512 -7.598,-21.512L-7.598,-22.867L-8.924,-22.801C-10.709,-22.539 -15.77,-22.867 -15.77,-22.867L-15.941,-21.615L-15.594,-21.561C-14.229,-21.309 -13.992,-19.93 -13.992,-19.93L-14.035,-5.719C-13.992,-4.219 -12.957,0.281 -4.543,0.281C3.855,0.281 4.043,-6.481 4.043,-6.481L4.48,-19.701C4.48,-20.981 6.57,-21.26 6.57,-21.26L6.512,-22.758L0,-22.586Z" style="fill:rgb(84,149,51);fill-rule:nonzero;"/>
            </g>
            <g transform="matrix(1,0,0,1,408.127,345.06)">
                <path d="M0,-17.416L0.188,-16.414C1.1,-16.359 1.623,-15.566 1.623,-15.566L1.498,-6.805C1.553,-4.902 1.045,-5.826 1.045,-5.826L-8.801,-17.523C-10.65,-17.348 -13.713,-17.523 -13.713,-17.523L-13.867,-16.549L-13.648,-16.549C-12.6,-16.824 -12.326,-15.336 -12.326,-15.336C-12.326,-15.336 -12.428,-5.197 -12.496,-3.934C-12.541,-2.676 -12.186,-2.381 -12.838,-1.643C-13.471,-0.887 -13.939,-0.99 -13.939,-0.99L-13.867,-0.193L-9.215,-0.193L-9.029,-1.051L-9.676,-1.342C-10.422,-1.691 -10.822,-2.203 -10.822,-2.203L-10.541,-13.488C-10.541,-14.238 -9.838,-13.537 -9.838,-13.537L1.326,0.107L3.287,-0.066L3.287,-14.99C3.578,-16.09 4.717,-16.48 4.717,-16.48L4.607,-17.523C4.193,-17.168 0,-17.416 0,-17.416" style="fill:rgb(84,149,51);fill-rule:nonzero;"/>
            </g>
            <g transform="matrix(1,0,0,1,657.943,345.06)">
                <path d="M0,-17.416L0.17,-16.414C1.094,-16.359 1.6,-15.566 1.6,-15.566L1.514,-6.805C1.559,-4.902 1.029,-5.826 1.029,-5.826L-8.813,-17.523C-10.664,-17.348 -13.697,-17.523 -13.697,-17.523L-13.877,-16.549L-13.652,-16.549C-12.613,-16.824 -12.326,-15.336 -12.326,-15.336C-12.326,-15.336 -12.436,-5.197 -12.49,-3.934C-12.551,-2.676 -12.217,-2.381 -12.824,-1.643C-13.463,-0.887 -13.932,-0.99 -13.932,-0.99L-13.877,-0.193L-9.219,-0.193L-9.023,-1.051L-9.646,-1.342C-10.418,-1.691 -10.822,-2.203 -10.822,-2.203L-10.527,-13.488C-10.527,-14.238 -9.834,-13.537 -9.834,-13.537L1.318,0.107L3.295,-0.066L3.295,-14.99C3.578,-16.09 4.73,-16.48 4.73,-16.48L4.607,-17.523C4.217,-17.168 0,-17.416 0,-17.416" style="fill:rgb(84,149,51);fill-rule:nonzero;"/>
            </g>
            <g transform="matrix(1,0,0,1,435.143,343.539)">
                <path d="M0,-14.893L0.738,-14.791C1.883,-14.723 1.357,-13.225 1.357,-13.225L-2.775,-3.28L-6.979,-13.815C-7.447,-14.838 -5.602,-15.256 -5.602,-15.256L-5.547,-16.063L-5.943,-16.063C-7.26,-15.756 -12.336,-16.112 -12.336,-16.112L-12.336,-14.959C-11.686,-15.028 -11.174,-14.209 -11.01,-14.045C-10.846,-13.872 -9.451,-11.049 -8.982,-9.856C-8.525,-8.622 -4.535,1.273 -4.535,1.273L-2.416,1.273L-1.613,-0.963C-1.613,-0.963 2.85,-12.186 3.305,-13.407C3.764,-14.614 5.041,-14.959 5.041,-14.959L5.041,-16.166L-0.068,-16.002L0,-14.893Z" style="fill:rgb(84,149,51);fill-rule:nonzero;"/>
            </g>
            <g transform="matrix(1,0,0,1,452.478,330.654)">
                <path d="M0,11.164C-0.516,12.49 -1.213,12.603 -1.213,12.603C-6.568,13.471 -6.398,12.131 -6.398,12.131L-6.398,6.101L-1.021,5.859C-1.021,5.859 -0.688,5.402 -0.24,4.652C0.219,3.904 -0.934,4.09 -0.934,4.09C-5.414,4.779 -6.398,4.09 -6.398,4.09L-6.398,0.869C-6.34,-1.106 -5.469,-1.27 -5.469,-1.27C-5.469,-1.27 -2.43,-1.516 -1.381,-1.324C-0.352,-1.16 -0.352,0.109 -0.352,0.109C0.115,0.918 0.967,0.168 0.967,0.168L0.967,-3.055C0.967,-3.281 0.506,-3.227 0.506,-3.227C-2.32,-2.836 -11.275,-3.178 -11.275,-3.178C-11.275,-3.178 -11.68,-2.074 -11.326,-2.074C-10.992,-2.074 -9.957,-2.27 -9.725,-0.649C-9.498,0.969 -9.615,9.504 -9.615,9.504C-9.725,9.898 -9.725,12.25 -10.131,12.764C-10.527,13.279 -10.822,13.234 -10.822,13.234C-10.822,14.383 -10.463,14.445 -10.463,14.445C-9.037,14.281 0.967,14.213 0.967,14.213C1.254,13.471 1.225,10.744 1.225,10.744C0.688,10.078 0,11.164 0,11.164" style="fill:rgb(84,149,51);fill-rule:nonzero;"/>
            </g>
            <g transform="matrix(1,0,0,1,601.277,330.654)">
                <path d="M0,11.164C-0.518,12.49 -1.207,12.603 -1.207,12.603C-6.563,13.471 -6.393,12.131 -6.393,12.131L-6.393,6.101L-1.037,5.859C-1.037,5.859 -0.688,5.402 -0.236,4.652C0.23,3.904 -0.906,4.09 -0.906,4.09C-5.402,4.779 -6.393,4.09 -6.393,4.09L-6.393,0.869C-6.32,-1.106 -5.463,-1.27 -5.463,-1.27C-5.463,-1.27 -2.387,-1.516 -1.383,-1.324C-0.346,-1.16 -0.346,0.109 -0.346,0.109C0.115,0.918 1.004,0.168 1.004,0.168L1.004,-3.055C1.004,-3.281 0.52,-3.227 0.52,-3.227C-2.314,-2.836 -11.277,-3.178 -11.277,-3.178C-11.277,-3.178 -11.697,-2.074 -11.324,-2.074C-10.98,-2.074 -9.943,-2.27 -9.734,-0.649C-9.486,0.969 -9.615,9.504 -9.615,9.504C-9.734,9.898 -9.734,12.25 -10.145,12.764C-10.545,13.279 -10.84,13.234 -10.84,13.234C-10.84,14.383 -10.488,14.445 -10.488,14.445C-9.031,14.281 1.004,14.213 1.004,14.213C1.268,13.471 1.215,10.744 1.215,10.744C0.693,10.078 0,11.164 0,11.164" style="fill:rgb(84,149,51);fill-rule:nonzero;"/>
            </g>
            <g transform="matrix(1,0,0,1,471.422,328.581)">
                <path d="M0,14.973C-3.094,12.889 -5.053,7.371 -5.053,7.371C-1.607,5.922 -1.152,3.795 -1.115,2.573C-1.023,1.383 -2.938,-1.439 -6.041,-1.209C-9.164,-0.982 -13.998,-1.154 -13.998,-1.154L-15.088,-1.105L-15.193,0.119C-13.715,0.065 -13.561,1.143 -13.561,1.143L-13.715,12.44C-13.66,15.702 -15.088,15.192 -15.088,15.192L-15.258,16.412L-8.629,16.354L-8.629,15.192L-9.273,15.082C-9.852,14.973 -10.248,13.803 -10.248,13.803L-10.248,1.143C-10.371,0.289 -5.414,-1.154 -4.725,2.942C-4.023,7.01 -8.672,6.852 -8.672,6.852L-8.58,8.514C-7.09,10.184 -3.801,16.412 -3.801,16.412L0.52,16.412C0.918,15.651 0,14.973 0,14.973" style="fill:rgb(84,149,51);fill-rule:nonzero;"/>
            </g>
            <g transform="matrix(1,0,0,1,480.293,338.172)">
                <path d="M0,-3.428C-3.465,-3.498 -3.73,-5.916 -3.73,-5.916C-3.73,-5.916 -4.486,-9.078 -0.521,-9.424C3.445,-9.787 3.039,-7.237 3.039,-7.237L4.078,-7.237L4.543,-10.008C4.543,-10.008 4.365,-10.987 -0.389,-11.03C-6.004,-11.102 -6.918,-5.514 -6.918,-5.514C-7.012,-4.92 -6.848,-4.297 -6.848,-4.297C-6.332,-1.076 -2.695,-0.627 -0.066,-0.733C2.588,-0.838 2.473,1.631 2.473,1.631C2.869,5.838 -1.504,5.492 -1.504,5.492C-5.305,5.492 -4.627,3.404 -4.627,3.404L-5.07,2.908C-5.656,2.326 -6.209,3.369 -6.209,3.369L-6.455,5.953C-6.455,5.953 -4.977,7.674 -1.332,7.347C2.916,6.927 5.299,4.457 5.688,1.062C6.096,-2.328 3.445,-3.362 0,-3.428" style="fill:rgb(84,149,51);fill-rule:nonzero;"/>
            </g>
            <g transform="matrix(1,0,0,1,523.568,344.716)">
                <path d="M0,-16.898L-3.387,-11.447C-4.621,-9.222 -4.922,-10.677 -4.922,-10.677L-8.77,-17.281L-13.828,-16.726L-13.992,-17.281C-17.523,-16.898 -27.955,-17.191 -27.955,-17.191L-28.273,-13.822L-27.189,-13.822C-26.957,-14.812 -25.813,-15.285 -25.813,-15.285C-24.801,-15.746 -22.506,-15.203 -22.506,-15.203L-22.822,-3.07C-22.883,-0.919 -24.801,-0.621 -24.801,-0.621L-24.893,0.151L-17.438,0.151L-17.438,-0.919L-17.896,-0.998C-19.133,-1.24 -19.283,-2.232 -19.283,-2.232L-18.986,-15.359L-17.609,-15.425C-14.756,-15.668 -14.898,-13.822 -14.898,-13.822L-13.92,-13.822L-13.92,-15.578C-11.529,-15.877 -10.838,-14.429 -10.838,-14.429L-6.764,-7.527L-6.764,-2.382C-6.918,-0.687 -8.531,-0.455 -8.531,-0.455L-8.459,0.383C-7.68,0.151 -1.627,0.086 -1.627,0.086L-1.627,-0.783C-3.24,-1.134 -3.387,-2.316 -3.387,-2.316L-3.465,-8.281L1.061,-14.738C1.682,-16.046 2.852,-16.136 2.852,-16.136L2.76,-17.048L0,-16.898Z" style="fill:rgb(84,149,51);fill-rule:nonzero;"/>
            </g>
            <g transform="matrix(1,0,0,1,753.773,344.679)">
                <path d="M0,-17.224L-2.723,-17.384L-6.133,-11.62C-7.371,-9.388 -7.684,-10.849 -7.684,-10.849L-11.529,-17.439L-16.004,-16.896L-16.1,-15.753C-14.291,-16.068 -13.59,-14.609 -13.59,-14.609L-9.514,-7.693L-9.514,-2.546C-9.848,-1.015 -11.236,-0.96 -11.236,-0.96L-11.205,0.215C-10.443,-0.009 -4.441,0.188 -4.441,0.188L-4.393,-0.939C-6.006,-1.322 -6.133,-2.464 -6.133,-2.464L-6.297,-7.988L-1.854,-14.954C-1.23,-16.251 0.07,-16.296 0.07,-16.296L0,-17.224Z" style="fill:rgb(84,149,51);fill-rule:nonzero;"/>
            </g>
            <g transform="matrix(1,0,0,1,554.957,344.6)">
                <path d="M0,-16.932L-0.066,-16.02C0.926,-16.088 1.242,-15.168 1.242,-15.168L1.242,-3.036C1.145,-0.881 -0.127,-0.723 -0.127,-0.723L-0.127,0.295L6.486,0.295L6.527,-0.803L5.371,-1.653C4.385,-2.266 4.836,-6.93 4.836,-6.93L10.283,-7.176L10.461,-8.793L4.836,-8.871C4.836,-8.871 4.836,-11.239 4.922,-13.401C5,-15.551 5.848,-15.461 5.848,-15.461L8.531,-15.461C9.914,-15.309 10.127,-13.778 10.127,-13.778L11.285,-13.864L11.535,-17.227L10.516,-17.164C8.756,-17.164 0,-16.932 0,-16.932" style="fill:rgb(84,149,51);fill-rule:nonzero;"/>
            </g>
            <g transform="matrix(1,0,0,1,588.285,342.554)">
                <path d="M0,-17.949C2.621,-18.021 2.379,-15.728 2.379,-15.728L3.76,-15.779L3.76,-20.099L3.445,-20.338C-3.07,-19.556 -16.127,-20.185 -16.127,-20.185L-16.594,-15.885L-15.363,-15.885C-15.363,-16.715 -13.447,-18.021 -13.447,-18.021L-10.742,-18.113C-8.139,-18.267 -8.367,-16.959 -8.367,-16.959L-8.74,-1.215C-8.91,1.028 -11.211,1.164 -11.211,1.164L-11.279,2.389L-1.525,2.389L-1.395,1.072L-2.383,0.557C-4.059,0.174 -3.84,-0.154 -4.059,-1.156C-4.307,-2.148 -3.77,-17.949 -3.77,-17.949L0,-17.949Z" style="fill:rgb(84,149,51);fill-rule:nonzero;"/>
            </g>
            <g transform="matrix(1,0,0,1,696.084,330.037)">
                <path d="M0,12.238C-1.207,13.59 -1.674,13.22 -3.135,13.22C-4.611,13.22 -5.445,13.439 -5.838,12.297C-6.217,11.142 -5.609,0.25 -5.609,0.25C-5.51,-1.457 -4.068,-1.457 -4.068,-1.457L-4.225,-2.746C-5.838,-2.512 -10.752,-2.602 -10.752,-2.602C-11.354,-2.293 -10.887,-1.526 -10.887,-1.526C-9.975,-1.526 -9.357,-0.369 -9.357,-0.369C-8.596,2.3 -9.592,13.293 -9.592,13.293C-10.887,14.289 -9.975,14.906 -9.975,14.906C-7.984,14.523 0.615,14.984 0.615,14.984C1.768,14.523 1.604,11.836 1.604,11.836C1.236,10.461 0,12.238 0,12.238" style="fill:rgb(84,149,51);fill-rule:nonzero;"/>
            </g>
            <g transform="matrix(1,0,0,1,292.221,325.24)">
                <path d="M0,17.617C-4.221,14.267 -9.24,6.976 -9.24,6.976L-6.451,3.965C-3.281,0.103 0.457,-1.154 0.457,-1.154C2.297,-2.434 -0.068,-2.481 -0.068,-2.481L-4.506,-2.481C-7.381,2.472 -10.449,4.664 -12.514,6.562C-14.592,8.443 -13.775,7.418 -13.775,7.418C-13.775,7.418 -13.9,1.775 -13.775,0.459C-13.666,-0.875 -11.867,-1.094 -11.867,-1.094C-10.389,-2.598 -13.549,-2.543 -13.549,-2.543L-18.67,-2.543C-21.086,-2.598 -20.352,-1.561 -20.352,-1.561C-20.234,-1.051 -18.748,-1.406 -18.328,0.045C-17.914,1.504 -18.273,11.451 -18.379,15.019C-18.492,18.582 -19.248,17.965 -20.053,18.314C-20.861,18.648 -21.201,20.215 -20.166,19.859C-19.139,19.508 -12.117,20.037 -11.82,19.797C-11.539,19.572 -11.471,18.769 -12.396,18.314C-13.307,17.849 -13.666,17.904 -14.01,16.633C-14.342,15.367 -14.127,10.877 -14.01,10.066C-13.9,9.263 -12.975,9.613 -12.975,9.613C-11.703,10.515 -6.576,16.715 -5.779,17.664C-4.949,18.648 -3.826,20.037 -3.826,20.037C-3.063,19.797 1.596,19.928 1.596,19.928C1.941,20.037 1.893,18.885 1.893,18.885C1.49,18.693 0,17.617 0,17.617" style="fill:rgb(84,149,51);fill-rule:nonzero;"/>
            </g>
            <g transform="matrix(1,0,0,1,164.166,240.383)">
                <path d="M0,114.656C42.988,114.656 77.838,88.98 77.838,57.324C77.838,25.642 42.988,0 0,0C-43.008,0 -77.861,25.642 -77.861,57.324C-77.861,88.98 -43.008,114.656 0,114.656" style="fill:rgb(84,149,51);fill-rule:nonzero;"/>
            </g>
            <g transform="matrix(1,0,0,1,114.625,335.701)">
                <path d="M0,-70.947L19.129,-70.947L19.129,-69.332L14.518,-69.332L14.518,-43.301L25.119,-52.98L25.119,-50.672L17.057,-43.076C17.057,-43.076 25.348,-43.457 33.193,-34.076C40.09,-25.793 46.074,-16.81 53.227,-8.301L53.227,-1.84C53.227,-1.84 45.846,0 34.566,-17.265C23.281,-34.541 21.668,-39.838 14.299,-41.006L14.299,-8.744L18.902,-8.744L18.902,-6.457L-0.219,-6.457L-0.219,-8.301L4.396,-8.301L4.396,-68.867L-0.219,-68.867L0,-70.947Z" style="fill:white;fill-rule:nonzero;"/>
            </g>
            <g transform="matrix(1,0,0,1,136.736,302.314)">
                <path d="M0,-45.607L14.518,-45.607L14.518,0C14.518,0 8.307,-5.31 5.084,-8.304L5.084,-43.775L-0.215,-43.775L0,-45.607Z" style="fill:white;fill-rule:nonzero;"/>
            </g>
            <g transform="matrix(1,0,0,1,141.82,303.461)">
                <path d="M0,6.447L8.75,20.269C8.75,20.269 7.137,35.916 16.594,35.715C16.594,35.715 23.709,35.916 27.855,30.162L27.65,-32.012L36.395,-32.012L36.395,34.789L42.385,34.789L42.385,36.625L28.563,36.625L28.563,32.486C28.563,32.486 24.879,38.01 15.434,38.24C5.998,38.459 0.926,31.32 0,24.877L0,6.447Z" style="fill:white;fill-rule:nonzero;"/>
            </g>
            <g transform="matrix(1,0,0,1,152.648,266.807)">
                <path d="M0,4.642C0,4.642 4.371,1.41 1.613,0.027L0.234,-0.438L0.234,-2.053L13.814,-2.516L13.814,-0.438C13.814,-0.438 7.822,-0.219 0,7.158L0,4.642Z" style="fill:white;fill-rule:nonzero;"/>
            </g>
            <g transform="matrix(1,0,0,1,164.166,264.291)">
                <path d="M0,-7.584L14.486,-7.584L14.486,-1.148L5.984,0L5.756,-5.525L0,-5.752L0,-7.584Z" style="fill:white;fill-rule:nonzero;"/>
            </g>
            <g transform="matrix(0.149193,0.988808,0.988808,-0.149193,185.275,328.581)">
                <path d="M5.422,-5.619C5.422,-5.619 6.499,3.053 4.365,5.945L5.422,6.714C5.422,6.714 8.79,2.707 6.987,-6.1L5.422,-5.619Z" style="fill:white;fill-rule:nonzero;"/>
            </g>
            <g transform="matrix(1,0,0,1,161.859,319.34)">
                <path d="M0,-48.588C0,-48.588 5.748,-56.434 29.031,-54.127C52.287,-51.822 50.918,-53.652 53.199,-58.492L55.049,-58.492C55.049,-58.492 54.369,-45.143 39.621,-45.143L39.621,7.846L43.992,7.846L43.992,9.904L24.879,9.904L24.879,7.617L29.945,7.617L29.945,-46.506C29.945,-46.506 22.346,-48.346 18.426,-49.518C14.502,-50.66 3.459,-49.518 -0.232,-45.606C-3.922,-41.67 -10.605,-28.553 3.67,-24.399L3.67,-23.258C3.67,-23.258 -7.832,-23.029 -6.43,-38.461C-6.43,-38.461 -5.76,-43.981 0,-48.588" style="fill:white;fill-rule:nonzero;"/>
            </g>
            <g transform="matrix(1,0,0,1,302.957,284.55)">
                <path d="M0,14.358L0,2.643L6.738,2.643C6.738,2.643 8.424,2.739 8.424,4.159L8.424,14.358L0,14.358ZM38.785,-5.04C37.111,-6.025 28.043,-11.232 25.688,-8.283C24.117,-6.322 23.227,-6.812 23.227,-6.812L-15.371,-6.812C-16.455,-6.812 -17.33,-7.119 -17.33,-7.119C-20.311,-8.933 -27.086,-9.175 -27.086,-9.175C-29.535,-9.423 -29.256,-7.105 -29.256,-7.105L-29.256,22.6C-29.256,22.6 -29.553,25.59 -26.398,24.893C-22.885,24.128 -15.963,23.225 -15.963,20.372L-15.963,-3.958L22.541,-3.958C22.541,-3.958 24.414,-3.853 24.414,-2.275L24.414,14.358C24.414,14.358 25.098,15.837 22.938,15.837C21.766,15.837 20.928,15.725 20.391,15.616L20.391,6.723C20.391,6.723 20.299,4.594 21.098,4.241C21.895,3.885 22.869,2.563 21.357,1.67C19.854,0.786 11.695,-3.896 9.57,-1.253C8.158,0.522 7.357,0.079 7.357,0.079L0.531,0.079C-0.441,0.079 -1.23,-0.199 -1.23,-0.199C-3.91,-1.831 -10.012,-2.052 -10.012,-2.052C-12.217,-2.273 -11.967,-0.191 -11.967,-0.191L-11.967,18.727C-11.967,18.727 -12.295,20.538 -9.391,20.372C-6.152,20.176 -0.496,19.356 -0.045,17.014L8.424,17.014L8.424,17.606C8.424,17.606 7.775,20.077 11.117,19.87C13.846,19.712 18.277,19.225 19.83,17.725C21.602,18.549 24.178,20.172 25.59,22.532C27.063,24.995 27.951,25.19 31.105,24.405C34.59,23.534 37.703,21.649 37.703,18.796L37.703,0.575C37.703,0.575 37.604,-1.787 38.484,-2.187C39.377,-2.574 40.461,-4.05 38.785,-5.04" style="fill:rgb(14,73,159);fill-rule:nonzero;"/>
            </g>
            <g transform="matrix(1,0,0,1,314.164,269.602)">
                <path d="M0,-7.055C0,-7.055 1.682,-6.967 1.682,-5.549L1.682,1.308L-15.672,1.308L-15.672,-7.055L0,-7.055ZM14.615,-8.03C13.111,-8.912 4.959,-13.598 2.84,-10.95C1.418,-9.182 0.621,-9.627 0.621,-9.627L-15.135,-9.627C-16.117,-9.627 -16.902,-9.903 -16.902,-9.903C-19.582,-11.537 -25.689,-11.748 -25.689,-11.748C-27.895,-11.983 -27.639,-9.893 -27.639,-9.893L-27.639,4.732C-27.639,4.732 -27.967,6.543 -25.061,6.371C-22.303,6.211 -17.791,5.59 -16.227,3.966L1.641,3.966C1.596,4.642 1.836,6.023 4.371,5.873C7.721,5.677 13.658,4.986 13.641,2.525L13.641,-2.977C13.641,-2.977 13.555,-5.102 14.352,-5.459C15.152,-5.815 16.125,-7.143 14.615,-8.03" style="fill:rgb(14,73,159);fill-rule:nonzero;"/>
            </g>
            <g transform="matrix(1,0,0,1,412.973,300.925)">
                <path d="M0,-42.361C0,-42.361 1.68,-42.273 1.68,-40.855L1.68,-2.05L-6.729,-2.05L-6.729,-42.361L0,-42.361ZM14.828,-41.009C15.221,-42.716 14.619,-43.334 14.619,-43.334C13.109,-44.216 4.957,-48.91 2.838,-46.254C1.42,-44.486 0.619,-44.927 0.619,-44.927L-6.199,-44.927C-7.174,-44.927 -7.959,-45.754 -7.959,-45.754C-10.639,-47.39 -16.744,-47.601 -16.744,-47.601C-18.949,-47.83 -18.688,-45.742 -18.688,-45.742L-18.688,4.327C-18.688,4.327 -19.016,6.125 -16.125,5.961C-13.359,5.797 -6.637,5.764 -6.637,0.608L1.639,0.608C1.631,2.811 1.139,6.549 4.592,5.961C7.896,5.393 13.66,4.78 13.645,2.319L13.645,-35.757C13.645,-37.07 14.432,-39.298 14.828,-41.009" style="fill:rgb(14,73,159);fill-rule:nonzero;"/>
            </g>
            <g transform="matrix(1,0,0,1,340.496,248.625)">
                <path d="M0,3.812C-1.707,3.154 -9.256,-0.79 -11.561,1.843L-13.854,4.468L-27.012,4.468L-27.012,3.91C-27.012,2.923 -26.227,2.234 -26.227,2.234C-26.227,2.234 -22.881,0.265 -25.633,-1.114C-28.391,-2.491 -36.066,-3.28 -38.139,-3.379C-40.209,-3.477 -40.016,-1.706 -40.016,-1.706L-40.016,4.468L-67.871,4.468C-70.24,4.468 -67.871,7.089 -67.871,7.089L-1.051,7.089C-1.051,7.089 0.197,7.289 1.186,6.304C2.166,5.318 1.701,4.468 0,3.812" style="fill:rgb(14,73,159);fill-rule:nonzero;"/>
            </g>
            <g transform="matrix(1,0,0,1,390.496,276.427)">
                <path d="M0,-0.035C0,-0.035 1.219,0.065 1.939,-0.724C2.883,-1.746 2.072,-2.818 1.055,-3.31C-0.59,-4.107 -5.611,-7.025 -7.051,-5.283C-9.285,-2.599 -9.352,-2.658 -9.352,-2.658L-10.346,-2.658C-9.334,-7.148 -8.65,-12.193 -8.424,-17.859L-1.723,-17.859C-1.723,-17.859 -0.504,-17.758 0.219,-18.547C1.16,-19.566 0.35,-20.64 -0.676,-21.133C-2.32,-21.931 -7.33,-24.848 -8.779,-23.103C-11.008,-20.424 -11.074,-20.482 -11.074,-20.482L-20.982,-20.482C-19.643,-22.992 -19.703,-22.664 -19.014,-23.004C-18.23,-23.402 -16.758,-24.191 -18.426,-25.371C-20.1,-26.555 -33.689,-34.328 -32.305,-28.424C-32.305,-28.424 -32.801,-14.248 -37.822,-5.969C-37.822,-5.969 -40.383,-0.754 -34.672,-5.283C-29.574,-9.332 -24.871,-14.078 -22.449,-17.859L-21.27,-17.859C-21.357,-16.357 -21.799,-10.367 -23.297,-2.658L-35.559,-2.658C-37.922,-2.658 -35.559,-0.035 -35.559,-0.035L-23.832,-0.035C-25.969,9.871 -29.828,21.906 -36.738,30.891C-36.738,30.891 -39.238,34.293 -34.766,31.799C-31.789,30.137 -21.48,24.641 -14.648,10.094C-13.547,11.764 -11.572,15.319 -10.223,20.906C-8.258,29.043 3.563,27.738 1.598,17.758C0.195,10.684 -7.598,5.723 -12.023,3.43C-11.654,2.317 -11.305,1.168 -10.988,-0.035L0,-0.035Z" style="fill:rgb(14,73,159);fill-rule:nonzero;"/>
            </g>
            <g transform="matrix(1,0,0,1,503.717,252.373)">
                <path d="M0,47.715C-1.705,47.063 -8.236,43.42 -10.541,46.049C-12.834,48.668 -13.486,48.93 -13.486,48.93L-25.604,48.93L-25.604,4.033L-3.615,4.033C-3.615,4.033 -2.361,4.229 -1.381,3.246C-0.389,2.262 -0.857,1.41 -2.563,0.748C-4.268,0.094 -10.814,-3.846 -13.115,-1.219L-15.412,1.41L-62.918,1.41C-65.279,1.41 -62.918,4.033 -62.918,4.033L-40.369,4.033L-40.369,48.93L-64.695,48.93C-67.057,48.93 -64.695,51.561 -64.695,51.561L0.146,51.561C0.146,51.561 1.189,51.561 2.164,50.58C3.148,49.592 1.705,48.377 0,47.715" style="fill:rgb(14,73,159);fill-rule:nonzero;"/>
            </g>
            <g transform="matrix(1,0,0,1,589.939,273.806)">
                <path d="M0,8.657C-1.49,8.219 -4.238,6.1 -5.182,8.442C-6.303,11.21 -7.564,11.055 -7.564,11.055L-7.646,11.083L-7.646,-19.302C-7.646,-20.091 -7.254,-21.175 -6.662,-21.861C-6.07,-22.552 -2.826,-24.128 -6.07,-25.304C-9.322,-26.491 -16.215,-27.575 -18.475,-27.669C-20.744,-27.773 -20.252,-24.816 -20.252,-24.816L-20.252,14.276L-42.342,19.889C-44.625,20.475 -41.686,22.432 -41.686,22.432L-20.252,16.917L-20.252,33.177C-20.252,33.177 -20.549,36.43 -17.891,36.134C-14.752,35.782 -7.646,35.346 -7.646,31.997L-7.646,13.673L-1.676,12.139C-1.676,12.139 1.869,11.552 2.467,10.632C2.945,9.86 1.742,9.188 0,8.657" style="fill:rgb(14,73,159);fill-rule:nonzero;"/>
            </g>
            <g transform="matrix(1,0,0,1,553.373,283.814)">
                <path d="M0,-13.82C0,-13.82 1.248,-13.621 2.236,-14.611C3.225,-15.593 2.236,-16.312 0.857,-17C-0.537,-17.697 -4.713,-20.888 -6.727,-18.381C-8.588,-16.064 -9.676,-16.445 -9.676,-16.445L-11.75,-16.445L-11.75,-25.246C-10.846,-25.431 -9.949,-25.642 -9.096,-25.863C-9.096,-25.863 -6.234,-26.849 -5.252,-26.459C-4.262,-26.058 -2.098,-25.763 -2.891,-27.738C-3.67,-29.701 -8.896,-40.242 -11.85,-36.996C-11.85,-36.996 -21.297,-29.115 -36.66,-24.677C-36.66,-24.677 -38.928,-23.8 -35.576,-23.402C-33.861,-23.201 -29.506,-23.183 -24.35,-23.556L-24.35,-16.445L-36.369,-16.445C-38.732,-16.445 -36.369,-13.82 -36.369,-13.82L-25.84,-13.82C-26.561,-11.697 -30.889,0.399 -39.121,10.86C-39.121,10.86 -41.586,13.91 -38.037,12.336C-35.4,11.168 -28.619,6.237 -24.35,1.354L-24.35,23.168C-24.35,23.168 -24.639,26.422 -21.986,26.125C-18.842,25.776 -11.75,25.338 -11.75,21.996L-11.75,-1.722C-11.012,-0.965 -10.035,0.282 -9.676,1.805C-9.096,4.366 -6.527,8.01 -1.904,6.237C2.639,4.5 1.955,-4.922 -11.75,-11.222L-11.75,-13.82L0,-13.82Z" style="fill:rgb(14,73,159);fill-rule:nonzero;"/>
            </g>
            <g transform="matrix(1,0,0,1,549.992,283.158)">
                <path d="M0,-9.754C0,-9.754 3.74,-6.697 5.514,-2.264C7.291,2.162 11.621,3.148 12.699,3.148C13.797,3.148 17.43,2.359 17.818,-0.496C18.223,-3.354 17.234,-6.01 12.9,-9.057C8.57,-12.117 -3.346,-12.902 0,-9.754" style="fill:rgb(14,73,159);fill-rule:nonzero;"/>
            </g>
            <g transform="matrix(1,0,0,1,551.377,264.654)">
                <path d="M0,-12.713C0,-12.713 3.244,-6.117 3.941,-4.139C4.629,-2.176 7.09,2.654 11.713,1.666C16.338,0.678 16.934,-6.701 8.758,-11.928C8.758,-11.928 6.498,-13.895 1.184,-14.682C1.184,-14.682 -2.369,-15.367 0,-12.713" style="fill:rgb(14,73,159);fill-rule:nonzero;"/>
            </g>
            <g transform="matrix(1,0,0,1,672.982,254.314)">
                <path d="M0,48.037C-1.23,47.383 -23.936,36.154 -33.988,14.797C-33.904,14.199 -33.838,13.578 -33.77,12.957L-7.684,12.957C-7.684,12.957 -6.436,13.152 -5.449,12.172C-4.465,11.185 -4.932,10.328 -6.639,9.674C-8.344,9.023 -15.895,5.078 -18.188,7.705L-20.49,10.328L-33.551,10.328C-33.381,7.662 -33.357,4.842 -33.482,1.857C-33.482,1.857 -33.285,2.746 -33.482,1.275C-33.678,-0.205 -32.4,-1.981 -32.002,-2.274C-31.609,-2.57 -27.871,-3.943 -33.094,-5.813C-38.307,-7.684 -45.1,-8.084 -46.385,-7.984C-47.664,-7.885 -47.203,-6.604 -47.203,-6.604C-47.203,-6.604 -45.717,0.609 -46.516,10.328L-72.799,10.328C-75.166,10.328 -72.799,12.957 -72.799,12.957L-46.775,12.957C-48.439,26.75 -54.947,44.408 -75.828,54.049C-75.828,54.049 -77.988,55.625 -75.029,55.625C-72.525,55.625 -42.793,52.074 -35.178,21.152C-34.369,26.029 -30.605,41.074 -13.725,54.705C-13.725,54.705 -12.217,56.121 -10.736,55.228C-9.264,54.34 -1.389,50.799 0.389,50.111C2.156,49.422 1.277,48.734 0,48.037" style="fill:rgb(14,73,159);fill-rule:nonzero;"/>
            </g>
            <g transform="matrix(1,0,0,1,697.129,251.26)">
                <path d="M0,5.574C1.84,7.549 5.578,9.908 8.859,7.678C12.148,5.445 9.318,-0.791 3.418,-2.561C-2.494,-4.334 -8.527,-4.006 -6.828,-2.043C-6.828,-2.043 -1.832,3.605 0,5.574" style="fill:rgb(14,73,159);fill-rule:nonzero;"/>
            </g>
            <g transform="matrix(1,0,0,1,710.59,250.337)">
                <path d="M0,4.522C0.783,6.434 3.289,10.305 7.414,9.782C7.414,9.782 11.098,9.649 11.033,4.987C10.957,0.329 3.811,-5.187 -3.154,-5.783C-3.154,-5.783 -4.594,-5.585 -3.35,-4.007C-3.35,-4.007 -0.598,3.086 0,4.522" style="fill:rgb(14,73,159);fill-rule:nonzero;"/>
            </g>
            <g transform="matrix(1,0,0,1,752.992,292.935)">
                <path d="M0,-31.443C-1.705,-32.556 -9.324,-37.812 -11.414,-35.117C-11.414,-35.117 -12.279,-34.396 -13.121,-33.213C-13.742,-32.355 -14.303,-32.031 -15.814,-32.031L-27.271,-32.031C-23.285,-33.345 -18.107,-35.492 -14.303,-38.134C-14.303,-38.134 -13.121,-38.99 -12.207,-39.189C-11.281,-39.388 -9.846,-39.974 -10.633,-41.154C-11.414,-42.341 -22.055,-49.168 -22.975,-46.275C-22.975,-46.275 -28.057,-35.529 -32.107,-32.031L-62.691,-32.031C-63.252,-33.769 -64.232,-36.271 -65.641,-37.673C-65.641,-37.673 -67.418,-39.974 -67.873,-37.084C-67.873,-37.084 -68.922,-32.427 -72.795,-26.056C-76.674,-19.695 -71.223,-15.558 -69.117,-15.558C-67.053,-15.558 -59.965,-15.947 -62.059,-29.468L-14.639,-29.468C-14.639,-29.468 -13.189,-29.541 -13.719,-28.222C-14.211,-26.974 -15.314,-23.957 -18.053,-21.179C-19.611,-22.754 -21.283,-24.341 -21.822,-24.746C-22.76,-25.433 -23.645,-25.236 -24.283,-24.937C-24.93,-24.644 -26.305,-23.416 -27.34,-22.679C-28.375,-21.941 -30.445,-22.068 -30.445,-22.068L-57.205,-22.068C-59.57,-22.068 -57.205,-19.441 -57.205,-19.441L-30.189,-19.441C-31.609,-17.029 -35.939,-14.382 -36.82,-13.867C-39.012,-14.328 -41.027,-14.726 -41.814,-14.834C-43.715,-15.095 -43.451,-14.31 -43.451,-14.31L-43.451,-7.646L-69.518,-7.646C-71.869,-7.646 -69.518,-5.021 -69.518,-5.021L-43.451,-5.021L-43.451,3.348C-43.451,3.348 -43.391,4.073 -43.391,4.922C-43.391,5.782 -44.768,6.043 -44.768,6.043C-44.768,6.043 -49.881,5.907 -53.035,6.043C-56.184,6.174 -53.299,7.684 -53.299,7.684C-48.117,9.586 -44.832,14.969 -43.715,16.352C-42.598,17.725 -39.512,17.2 -34.719,15.489C-29.934,13.784 -30.129,7.416 -30.129,7.416L-30.129,-5.021L-6.039,-5.021C-6.039,-5.021 -4.791,-4.826 -3.807,-5.808C-2.818,-6.791 -3.496,-8 -5.188,-8.693C-10.205,-10.761 -13.121,-12.9 -15.424,-10.271L-17.725,-7.646L-29.957,-7.646C-29.732,-8.494 -29.27,-8.902 -28.357,-9.644C-26.912,-10.828 -28.221,-11.679 -29.465,-12.14C-29.715,-12.236 -30.275,-12.384 -31.023,-12.566C-27.09,-13.332 -24.178,-14.289 -22.072,-15.144C-19.164,-16.328 -17.988,-16.037 -16.016,-15.541C-14.039,-15.047 -14,-16.625 -15.324,-18.248C-15.652,-18.644 -16.152,-19.197 -16.734,-19.814C-16.354,-19.91 -15.93,-20.033 -15.424,-20.214C-10.301,-21.988 -5.508,-24.548 -3.865,-26.515C-2.227,-28.49 -1.504,-28.418 -0.584,-28.88C0.328,-29.339 1.711,-30.326 0,-31.443" style="fill:rgb(14,73,159);fill-rule:nonzero;"/>
            </g>
        </g>
    </g>
</svg>
