<?xml version="1.0" encoding="UTF-8" standalone="no"?>
<!DOCTYPE svg PUBLIC "-//W3C//DTD SVG 1.1//EN" "http://www.w3.org/Graphics/SVG/1.1/DTD/svg11.dtd">
<svg width="100%" height="100%" viewBox="0 0 155 37" version="1.1" xmlns="http://www.w3.org/2000/svg" xmlns:xlink="http://www.w3.org/1999/xlink" xml:space="preserve" xmlns:serif="http://www.serif.com/" style="fill-rule:evenodd;clip-rule:evenodd;stroke-linejoin:round;stroke-miterlimit:2;">
    <g transform="matrix(1,0,0,1,-2856,-4979)">
        <g transform="matrix(0.212629,1.18033e-17,0,0.212629,-181.987,1954.61)">
            <g>
                <g transform="matrix(250,0,0,250,14280.1,14390.6)">
                    <path d="M0.314,-0.647L0.231,-0L0.031,-0L0.111,-0.647L0.314,-0.647Z" style="fill:white;fill-rule:nonzero;"/>
                </g>
                <g transform="matrix(1,-5.55112e-17,0,1,-5111,517)">
                    <path d="M19750.6,13711.8L19744.6,13773.1L19793.1,13773.1L19802.3,13711.8L19850.1,13711.8L19829.3,13873.6L19781.3,13873.6L19789.1,13813.6L19738.3,13813.8L19730.8,13873.6L19641.8,13873.9C19641.8,13873.9 19659,13861.2 19666.1,13848.5C19676.1,13830.4 19685,13805.4 19685,13805.4L19685.2,13805C19686.6,13801.1 19699,13769.4 19712.9,13742.6C19726.6,13716.2 19748.1,13712.2 19750.6,13711.8Z" style="fill:white;fill-rule:nonzero;"/>
                </g>
                <g transform="matrix(250,1.57772e-30,0,250,14354.4,14390.2)">
                    <path d="M0.622,0C0.592,0.001 0.544,0.002 0.512,0.001C0.494,0.001 0.482,-0 0.482,-0L0.45,-0.234L0.353,-0L0.14,-0L0.088,-0.647L0.254,-0.647L0.281,-0.201L0.423,-0.497L0.407,-0.647L0.579,-0.647L0.617,-0.201L0.792,-0.647L1.072,-0.647C1.072,-0.647 1.021,-0.626 0.987,-0.577C0.959,-0.536 0.93,-0.476 0.93,-0.476L0.822,-0.221C0.822,-0.221 0.749,-0.006 0.622,0Z" style="fill:white;fill-rule:nonzero;"/>
                </g>
                <g transform="matrix(250,0,0,250,14736.8,14390.6)">
                    <path d="M0.291,-0.494L0.278,-0.402L0.49,-0.399L0.463,-0.261L0.258,-0.264L0.244,-0.153L0.512,-0.149L0.486,-0L0.031,-0L0.111,-0.647L0.583,-0.647L0.554,-0.496L0.291,-0.494Z" style="fill:white;fill-rule:nonzero;"/>
                </g>
                <g transform="matrix(250,0,0,250,14875.3,14390.6)">
                    <path d="M0.396,-0.658C0.426,-0.658 0.456,-0.656 0.485,-0.651C0.514,-0.646 0.541,-0.64 0.564,-0.631L0.511,-0.472C0.511,-0.472 0.462,-0.482 0.44,-0.488C0.418,-0.493 0.397,-0.496 0.378,-0.496C0.327,-0.496 0.292,-0.48 0.271,-0.448C0.25,-0.416 0.23,-0.393 0.227,-0.299C0.225,-0.238 0.248,-0.211 0.266,-0.188C0.283,-0.165 0.311,-0.154 0.348,-0.154C0.367,-0.154 0.388,-0.156 0.412,-0.16C0.435,-0.163 0.456,-0.168 0.475,-0.175L0.489,-0.166L0.454,-0.008C0.431,-0.001 0.409,0.004 0.389,0.007C0.368,0.01 0.346,0.011 0.322,0.011C0.226,0.011 0.153,-0.013 0.102,-0.06C0.051,-0.107 0.025,-0.175 0.025,-0.263C0.025,-0.387 0.057,-0.484 0.122,-0.554C0.186,-0.623 0.277,-0.658 0.396,-0.658Z" style="fill:white;fill-rule:nonzero;"/>
                </g>
            </g>
        </g>
    </g>
</svg>
